<?xml version="1.0" encoding="utf-8"?>
<!-- Generator: Adobe Illustrator 16.0.0, SVG Export Plug-In . SVG Version: 6.00 Build 0)  -->
<!DOCTYPE svg PUBLIC "-//W3C//DTD SVG 1.1//EN" "http://www.w3.org/Graphics/SVG/1.1/DTD/svg11.dtd">
<svg version="1.1" id="Layer_1" xmlns="http://www.w3.org/2000/svg" xmlns:xlink="http://www.w3.org/1999/xlink" x="0px" y="0px"
	 width="400px" height="400px" viewBox="0 0 400 400" enable-background="new 0 0 400 400" xml:space="preserve">
<path fill="#771214" stroke="#000000" stroke-width="2" stroke-miterlimit="10" d="M331.187,362.539
	c0,5.501-6.104,9.961-13.633,9.961H82.955c-7.529,0-13.632-4.46-13.632-9.961V57.453c0-5.501,6.104-9.961,13.632-9.961h234.599
	c7.529,0,13.633,4.46,13.633,9.961V362.539z"/>
<rect x="83.39" y="60.154" fill="#FFFFFF" stroke="#000000" stroke-width="2" stroke-miterlimit="10" width="232.204" height="300.386"/>
<path fill="#BFBFBF" stroke="#000000" stroke-miterlimit="10" d="M206.076,38.206"/>
<path fill="none" stroke="#000000" stroke-miterlimit="10" d="M205.132,38.211"/>
<path fill="none" stroke="#000000" stroke-miterlimit="10" d="M188.361,39.21"/>
<path fill="#A8A5A5" stroke="#A8A5A5" stroke-miterlimit="10" d="M204.493,33.206"/>
<g>
	<path fill="#828282" d="M242.936,42.367v8.366v-0.288v4.039h0.137h20.826c4.914,0,8.898,3.983,8.898,8.898v4.898h-146.61v-4.898
		c0-4.915,3.983-8.898,8.898-8.898h20.82h0.144v-3.944v0.288v-8.465c0,0,33.21,0,33.23,0c3.121,0,6.127,0.188,9.324,0.064
		c2.75-0.106,4.984-0.126,7.417-0.06c1.362,0.038,2.485,0.021,3.847-0.002c2.113-0.036,4.231,0,6.346,0
		c5.705,0,11.41,0,17.116,0.001C236.531,42.366,239.732,42.367,242.936,42.367z"/>
	<path fill="#828282" d="M190.937,41.672c1.423,0,4.112,0.553,4.375-1.125c0.154-0.981-0.479-1.236-0.752-1.959
		c-0.293-0.777-0.194-2.024-0.303-2.852c-0.238-1.818,0.958-3.695,2.79-4.5c1.539-0.677,3.799-1.688,5.278-0.442
		c1.252,1.053,1.973,2.97,2.471,4.521c0.752,2.335-0.828,5.395-2.906,6.552c-0.375,0.208-0.762,0.5-1.186,0.59
		c-0.322,0.069-0.714,0.005-1.042,0.007c-0.484,0.002-0.989,0.001-1.46-0.125c-0.507-0.135-0.513-0.319-0.799-0.67
		c-0.529-0.65-1.581-0.601-2.327-0.746c-1.125-0.219-2.418,0.09-3.422,0.607c-0.432,0.222-1.078,0.594-1.266,1.077
		c-0.231,0.594,0.41,0.52,0.854,0.525c3.43,0.04,6.858,0.086,10.288,0.144c1.379,0.023,2.758,0.043,4.137,0.054
		c0.522,0.004,1.51,0.205,1.987-0.001c0.401-0.173,0.532-0.871,0.624-1.255c0.357-1.498,0.724-2.986,1.102-4.479
		c0.023-0.092,0.045-0.186,0.066-0.279c0.15-0.695-0.044-1.591-0.166-2.283c-0.263-1.489-0.817-2.928-1.719-4.15
		c-0.375-0.509-0.615-1.032-1.125-1.466c-0.566-0.483-1.287-0.735-1.875-1.202c-0.554-0.439-0.928-0.852-1.616-1.13
		c-0.501-0.203-1.099-0.375-1.618-0.372c-0.602,0.003-1.23-0.064-1.798,0.106c-0.558,0.168-1.14,0.333-1.715,0.435
		c-1.324,0.234-2.666,0.201-3.771,1.042c-0.659,0.501-1.207,1.028-1.729,1.668c-0.526,0.645-0.833,1.441-1.234,2.196
		c-0.502,0.946-1.004,1.904-1.36,2.917c-0.278,0.792-0.236,1.64-0.159,2.468c0.057,0.609,0.367,1.2,0.501,1.797
		c0.251,1.116,0.669,2.229,1.083,3.289"/>
	<path fill="none" stroke="#000000" stroke-miterlimit="10" d="M190.922,41.975c-0.648-1.418-1.249-3.155-1.249-4.94
		c0-5.659,4.396-10.246,9.819-10.246c5.423,0,9.925,4.148,9.82,10.246c-0.027,1.581-0.748,3.776-1.658,5.33l0,0l35.281,0.002v8.366
		v-0.289v4.039h0.137h20.826c4.914,0,8.898,3.984,8.898,8.898v4.898h-146.61v-4.898c0-4.915,3.983-8.898,8.898-8.898h20.82h0.144
		v-3.945v0.289v-8.465h33.23l1.827,0.004C191.045,42.239,190.984,42.108,190.922,41.975"/>
	<ellipse fill="none" stroke="#000000" stroke-miterlimit="10" cx="199.614" cy="36.258" rx="5.709" ry="6.108"/>
</g>
<line fill="none" stroke="#000000" stroke-width="2" stroke-miterlimit="10" x1="125.242" y1="99.5" x2="261.5" y2="99.5"/>
<line fill="none" stroke="#000000" stroke-width="2" stroke-miterlimit="10" x1="125.242" y1="111.5" x2="251.5" y2="111.5"/>
<line fill="none" stroke="#000000" stroke-width="2" stroke-miterlimit="10" x1="125.242" y1="124" x2="257.5" y2="124"/>
<line fill="none" stroke="#000000" stroke-width="2" stroke-miterlimit="10" x1="125.242" y1="136.5" x2="264.5" y2="136.5"/>
<line fill="none" stroke="#000000" stroke-width="2" stroke-miterlimit="10" x1="125.242" y1="148.5" x2="231" y2="148.5"/>
<line fill="none" stroke="#000000" stroke-width="2" stroke-miterlimit="10" x1="125.242" y1="161" x2="251.5" y2="161"/>
<line fill="none" stroke="#000000" stroke-width="2" stroke-miterlimit="10" x1="124.742" y1="171.5" x2="261" y2="171.5"/>
<line fill="none" stroke="#000000" stroke-width="2" stroke-miterlimit="10" x1="124.742" y1="183.5" x2="251" y2="183.5"/>
<line fill="none" stroke="#000000" stroke-width="2" stroke-miterlimit="10" x1="124.742" y1="196" x2="257" y2="196"/>
<line fill="none" stroke="#000000" stroke-width="2" stroke-miterlimit="10" x1="124.742" y1="208.5" x2="264" y2="208.5"/>
<line fill="none" stroke="#000000" stroke-width="2" stroke-miterlimit="10" x1="124.742" y1="220.5" x2="230.5" y2="220.5"/>
<line fill="none" stroke="#000000" stroke-width="2" stroke-miterlimit="10" x1="124.742" y1="233" x2="251" y2="233"/>
</svg>
